<svg width="57" height="35" viewBox="0 0 57 35" fill="none" xmlns="http://www.w3.org/2000/svg">
<path d="M20.6511 12.7346C20.869 12.6059 20.9782 12.3829 20.9782 12.0657C20.9782 11.7368 20.8761 11.5059 20.672 11.373C20.4678 11.2403 20.0705 11.1738 19.4798 11.1738H18.9685V12.9279H19.4442C20.0306 12.9279 20.4331 12.8636 20.6511 12.7346Z" fill="#1F0D3F"/>
<path d="M28.69 11.6086C28.6424 11.4145 28.5809 11.1646 28.5057 10.8594C28.4542 11.0734 28.4036 11.2776 28.3541 11.4718C28.3044 11.666 28.2539 11.8523 28.2025 12.0307L27.3284 14.9025H29.6889L28.8029 12.0307C28.7752 11.9436 28.7376 11.8028 28.69 11.6086Z" fill="#1F0D3F"/>
<path d="M20.0825 20.9574C20.0469 20.8118 20.0008 20.6245 19.9443 20.3955C19.9055 20.5561 19.8677 20.7091 19.8306 20.8548C19.7934 21.0004 19.7555 21.1401 19.7169 21.2739L19.0613 23.4278H20.8316L20.1672 21.2739C20.1465 21.2086 20.1182 21.1031 20.0825 20.9574Z" fill="#1F0D3F"/>
<path d="M53.6642 0.162109H4.25597C2.43619 0.162109 0.960938 1.63736 0.960938 3.45714V31.6651C0.960938 33.4848 2.43619 34.9601 4.25597 34.9601H53.6642C55.4839 34.9601 56.9592 33.4848 56.9592 31.6651V3.45714C56.9592 1.63736 55.4839 0.162109 53.6642 0.162109ZM5.22503 9.4277H14.8652V11.1528H5.22503V9.4277ZM5.22503 12.7764H14.8652V14.5015H5.22503V12.7764ZM5.22503 16.4295H14.8652V18.1546H5.22503V16.4295ZM10.6109 20.8812H9.1482V25.8668H7.36889V20.8812H5.90633V19.3383H10.6109V20.8812ZM21.5363 25.8668L21.2064 24.6983H18.6778L18.3389 25.8668H16.6577H16.5685H14.6465L13.1483 23.3115V25.8668H11.4804V19.3383H13.34C14.0683 19.3383 14.5759 19.3717 14.8628 19.4386C15.1497 19.5055 15.3972 19.6177 15.6054 19.7752C15.8403 19.9536 16.0208 20.1811 16.1472 20.4575C16.2735 20.7339 16.3368 21.0387 16.3368 21.3716C16.3368 21.877 16.2126 22.2881 15.9645 22.6045C15.7161 22.9213 15.3541 23.1315 14.8785 23.2358L16.5987 25.7794L18.8206 19.3382H21.0503L23.3067 25.8667H21.5363V25.8668ZM23.306 16.8941C23.1098 17.2469 22.8294 17.5205 22.4647 17.7146C22.1674 17.8732 21.8008 17.9861 21.3647 18.0536C20.9287 18.121 20.2151 18.1547 19.2243 18.1547H16.7686V9.45002H19.1528C20.1359 9.45002 20.8227 9.48184 21.213 9.54517C21.6034 9.60861 21.9394 9.71755 22.2209 9.8722C22.5419 10.0506 22.7866 10.2895 22.9552 10.5887C23.1237 10.888 23.2079 11.2338 23.2079 11.6263C23.2079 12.1218 23.082 12.5151 22.8304 12.8065C22.5786 13.0979 22.1772 13.3188 21.6264 13.4694C22.2447 13.517 22.7283 13.734 23.0771 14.1205C23.4258 14.5071 23.6004 15.0233 23.6004 15.6694C23.6002 16.133 23.5022 16.5413 23.306 16.8941ZM30.3124 25.8668H28.6044L26.1384 22.4955C26.0879 22.427 26.0082 22.2897 25.8999 22.083C25.7912 21.8762 25.6731 21.6334 25.5453 21.3538C25.5809 21.6274 25.6068 21.8697 25.6234 22.0807C25.6395 22.292 25.6479 22.4792 25.6479 22.6427V25.8669H23.931V19.3384H25.6479L28.1139 22.6962C28.1615 22.7648 28.2394 22.902 28.348 23.1088C28.4565 23.3154 28.5763 23.5614 28.7071 23.8467C28.6714 23.5762 28.6454 23.3355 28.6291 23.1244C28.6126 22.9132 28.6045 22.726 28.6045 22.5624V19.3383H30.3125V25.8668H30.3124ZM30.1882 16.5968H26.817L26.365 18.1546H24.0045L27.0072 9.44991H29.9801L32.9887 18.1546H30.6283L30.1882 16.5968ZM35.338 25.4097C34.8833 25.8303 34.2767 26.0407 33.5186 26.0407C33.0637 26.0407 32.6497 25.9632 32.2766 25.8088C31.9036 25.6543 31.5447 25.4119 31.1997 25.0819L32.0024 23.7576C32.267 24.0579 32.5279 24.2824 32.785 24.4309C33.0422 24.5795 33.2985 24.6539 33.5542 24.6539C33.792 24.6539 33.9875 24.5899 34.1406 24.4622C34.2936 24.3344 34.3703 24.1723 34.3703 23.9761C34.3703 23.7591 34.3041 23.5919 34.172 23.4744C34.0395 23.3569 33.7402 23.2359 33.2734 23.111C32.6342 22.9386 32.1824 22.714 31.9178 22.4376C31.6532 22.1612 31.5209 21.7822 31.5209 21.3006C31.5209 20.6763 31.7297 20.1672 32.1475 19.7733C32.565 19.3793 33.1068 19.1824 33.7728 19.1824C34.1325 19.1824 34.4735 19.2307 34.7962 19.3273C35.1185 19.4239 35.4241 19.5703 35.7125 19.7666L35.1551 21.0464C34.9528 20.8741 34.7454 20.7439 34.5329 20.6564C34.3204 20.5686 34.1101 20.5247 33.9018 20.5247C33.6878 20.5247 33.5139 20.5761 33.3802 20.6785C33.2464 20.7813 33.1795 20.9126 33.1795 21.0732C33.1795 21.2367 33.2382 21.3674 33.3556 21.4655C33.473 21.5637 33.6997 21.6573 34.0357 21.7464L34.116 21.7687C34.8413 21.9649 35.3185 22.1806 35.5474 22.4153C35.7019 22.576 35.8194 22.7683 35.8997 22.9928C35.98 23.2174 36.0202 23.4662 36.0202 23.7398C36.0203 24.4324 35.7928 24.9888 35.338 25.4097ZM36.4462 13.1096C36.3015 12.8342 36.1438 12.5101 35.9735 12.1375C36.0211 12.5022 36.0559 12.8253 36.0776 13.1066C36.0993 13.3881 36.1103 13.6379 36.1103 13.8559V18.1547H33.8212V9.45002H36.1103L39.3984 13.9272C39.4616 14.0185 39.5656 14.2017 39.7105 14.4772C39.8551 14.7527 40.0146 15.0808 40.1893 15.4613C40.1417 15.1005 40.1068 14.7795 40.0851 14.498C40.0634 14.2166 40.0524 13.967 40.0524 13.7489V9.45002H42.3296V18.1547H40.0524L36.7644 13.6596C36.6968 13.5685 36.5909 13.3851 36.4462 13.1096ZM41.0192 20.7697H38.7538V21.9023H40.8898V23.3026H38.7538V25.8667H37.0191V19.3382H41.0192V20.7697ZM45.9869 20.7697H43.7215V21.9023H45.8576V23.3026H43.7215V24.4039H45.9869V25.8667H41.9869V19.3382H45.9869V20.7697ZM50.3304 25.8668L48.832 23.3115V25.8668H47.1642V19.3383H49.0238C49.7521 19.3383 50.2597 19.3717 50.5466 19.4386C50.8335 19.5055 51.0812 19.6177 51.2891 19.7752C51.524 19.9536 51.7046 20.1811 51.8309 20.4575C51.9571 20.7339 52.0205 21.0387 52.0205 21.3716C52.0205 21.877 51.8962 22.2881 51.6482 22.6045C51.3998 22.9213 51.038 23.1315 50.5623 23.2358L52.3415 25.8668H50.3304ZM49.3812 18.1546L46.545 14.2482V18.1546H44.1965V9.44991H46.5452V13.4038L49.2981 9.44991H52.0629L48.8462 13.6953L52.3424 18.1546H49.3812Z" fill="#1F0D3F"/>
<path d="M50.0204 20.9144C49.8553 20.776 49.5782 20.707 49.1887 20.707H48.8318V22.4239H49.1619C49.5455 22.4239 49.8256 22.3584 50.0024 22.2276C50.1793 22.0969 50.2679 21.8918 50.2679 21.6122C50.2679 21.2852 50.1854 21.0525 50.0204 20.9144Z" fill="#1F0D3F"/>
<path d="M21.0257 14.6975C20.8117 14.5529 20.4153 14.4805 19.8366 14.4805H18.9685V16.3771H19.8008C20.3637 16.3771 20.762 16.3068 20.996 16.166C21.2299 16.0254 21.3468 15.7905 21.3468 15.4616C21.3469 15.0969 21.2399 14.8423 21.0257 14.6975Z" fill="#1F0D3F"/>
<path d="M14.3366 20.9144C14.1716 20.776 13.8943 20.707 13.5049 20.707H13.1482V22.4239H13.4782C13.8616 22.4239 14.1418 22.3584 14.3187 22.2276C14.4957 22.0969 14.5842 21.8918 14.5842 21.6122C14.5841 21.2852 14.5016 21.0525 14.3366 20.9144Z" fill="#1F0D3F"/>
</svg>
